<svg xmlns="http://www.w3.org/2000/svg" width="1080" height="1080" viewBox="0 0 1080 1080">
    <defs>
        <style>
            .cls-1 {
                fill: #d7d7d7;
                stroke: #363636;
            }

            .cls-1, .cls-2, .cls-4 {
                stroke-width: 1px;
            }

            .cls-1, .cls-2 {
                fill-rule: evenodd;
            }

            .cls-2, .cls-4 {
                stroke: #000;
            }

            .cls-3 {
                fill: none;
                stroke: #607d8b;
                stroke-width: 7.63px;
            }

            .cls-4 {
                fill: #673ab7;
            }
        </style>
    </defs>
    <path class="cls-1" d="M540,28.971c282.233,0,511.03,228.8,511.03,511.029S822.233,1051.03,540,1051.03,28.971,822.233,28.971,540,257.767,28.971,540,28.971ZM540.5,239C713.089,239,853,378.911,853,551.5S713.089,864,540.5,864,228,724.089,228,551.5,367.911,239,540.5,239Z" />
    <path class="cls-2" d="M540,183.058c197.133,0,356.942,159.809,356.942,356.942S737.133,896.942,540,896.942,183.058,737.133,183.058,540,342.867,183.058,540,183.058Zm0,90.877c146.944,0,266.065,119.121,266.065,266.065S686.944,806.065,540,806.065,273.935,686.944,273.935,540,393.056,273.935,540,273.935Z" />
    <circle class="cls-3" cx="540.5" cy="540.5" r="264.5" />
    <circle class="cls-4" cx="540" cy="540" r="139.656" />
</svg>